<?xml version="1.0" encoding="utf-8"?>
<!-- Generator: Adobe Illustrator 25.4.1, SVG Export Plug-In . SVG Version: 6.00 Build 0)  -->
<svg version="1.1" id="Capa_1" xmlns="http://www.w3.org/2000/svg" xmlns:xlink="http://www.w3.org/1999/xlink" x="0px" y="0px"
	 viewBox="0 0 458 280.3" style="enable-background:new 0 0 458 280.3;" xml:space="preserve">
<style type="text/css">
	.st0{fill:#1C659A;}
	.st1{fill:#070707;}
	.st2{fill:#D51B2C;}
</style>
<path class="st0" d="M242.8-147.8c-0.7,0.6-1.5,1.1-2.2,1.7l0,0.1C241.4-146.5,242.2-147.1,242.8-147.8
	C242.9-147.7,242.8-147.8,242.8-147.8z"/>
<path class="st0" d="M236.7-141.8c1.4,1.2,1.7,0.1,2.1-1l0,0c-1.1,0.7-1.9,1.6-2,2.9l0,0.1C237.7-140.4,238.1-141.1,236.7-141.8
	L236.7-141.8z"/>
<path class="st0" d="M236.8-139.8c-0.5,0.1-0.8,0.4-0.6,1c0.8-0.6,0.1-0.8-0.4-1l0,0C236.1-139.8,236.5-139.8,236.8-139.8
	L236.8-139.8z"/>
<path class="st0" d="M240.6-146c-0.3,0.7-0.5,1.5-0.8,2.2l0,0C240.1-144.5,240.4-145.2,240.6-146C240.7-145.9,240.6-146,240.6-146z"
	/>
<path class="st0" d="M238.8-142.7c0.4-0.4,0.7-0.7,1.1-1.1l0,0C239.5-143.5,239.1-143.1,238.8-142.7
	C238.8-142.8,238.8-142.7,238.8-142.7z"/>
<g>
	<g>
		<path class="st0" d="M167.1-215.5c4.8-2.4,9.6-4.7,14.4-7.1c6.1,3.9,12.3,7.7,18.4,11.6c8.4,5.3,16.7,10.8,24.5,17.1
			c12.9,10.4,22.3,30.1,12.5,50c-0.4,0.7-0.9,1.5-0.2,2.3l0.1-0.1c-1.5,0.1-2,0.7-1,2l0,0c-0.7-0.7-1.1-0.2-1.5,0.4
			c-14.8,20.1-35,23.8-57.9,18.6c-5.5-1.2-10.8-3.4-16.2-4.9c-8-2.2-9.7-1.6-14.2,5.1c-1,1.5-2,2.1-3.6,1.8c-1.9-0.4-1.4-2-1.4-3.2
			c0-15,0-30,0-44.9c0-1.5-0.7-3.6,2.1-3.6c2.4,0,2.4,1.8,2.8,3.4c1.7,7.4,4.3,14.3,8.4,20.7c9.9,15.6,28.1,22.7,45.5,17.8
			c18.4-5.2,24.7-23.7,13.2-38.9c-3.9-5.1-8.8-9.1-14.1-12.5c-12-7.7-24.2-15.3-36.3-22.9c-1.8-1.2-3.6-2.4-5.4-3.6
			c-2.4-1.7-2.3-2.6,0.6-3.8C161-212,165.1-211.7,167.1-215.5z"/>
		<path class="st0" d="M275.1-273.8c2.2-1.7,4.3-3.5,6.6-5.1c8.9-5.9,19.7-4,25.7,4.8c1.1,1.6,1.6,1.6,2.9,0.5
			c2.4-2.1,4.7-4.4,7.4-5.9c6.2-3.6,12.8-3.5,19.1-0.3c5.8,3,7,8.4,6.9,14.4c-0.1,9.2,0.2,18.3-0.1,27.5c-0.1,4.3,0.6,7.4,5.2,8.6
			c1.1,0.3,3,0.7,2.4,2.5c-0.4,1.4-2,0.8-3.1,0.8c-8.2,0-16.3,0-24.5,0c-1,0-2.5,0.6-2.8-1.2c-0.2-1.2,0.9-1.8,1.8-2.1
			c3.8-1.5,4.3-4.4,4.2-8c-0.2-8-0.1-16-0.1-24c0-3.7-0.7-7.2-4.4-8.8c-4.1-1.8-8.1-0.8-11.9,1.5c-1.7,1.1-1.6,2.7-1.6,4.4
			c0,9.7,0.2,19.3-0.1,29c-0.1,3.5,2.1,4.5,4.2,6c0.8,0.5,1.9,1,1.6,2.2c-0.3,1.3-1.5,1.1-2.5,1.1c-7.8,0-15.7,0-23.5,0
			c-1,0-2.2,0.2-2.5-1c-0.3-1.2,0.8-1.9,1.7-2.2c4.1-1.6,4.2-4.9,4.1-8.6c-0.2-8-0.1-16-0.1-24c0-3.6-0.9-6.7-4.4-8.3
			c-4-1.8-7.8-0.8-11.5,1.2c-1.7,0.9-1.4,2.5-1.4,4c0,10,0.1,20-0.1,30c-0.1,3.2,1.9,4.3,3.9,5.7c0.8,0.6,1.8,1.2,1.5,2.3
			c-0.4,1.2-1.6,0.9-2.6,0.9c-8.3,0-16.7,0-25,0c-0.9,0-2.2,0.3-2.5-1c-0.2-1.2,0.9-1.8,1.8-2c5.9-1.4,6.2-5.6,6-10.7
			c-0.3-7.6-0.3-15.3,0-23c0.2-4.2-1-7-4.8-8.8c-1.1-0.5-2.9-1-2.8-2.5c0.2-1.8,2.2-1.6,3.6-2.1c4.9-1.7,9.9-3.1,14.6-5
			c3.8-1.5,5.6-0.9,5.5,3.5C273.8-276.3,273.6-274.9,275.1-273.8z"/>
		<path class="st0" d="M409-241.5c-2.2,8.8-10.9,15.5-20.6,16.5c-11.5,1.2-21.8-3.6-26.6-12.2c-5.5-10-3.9-25.1,3.7-34.4
			c7.2-8.8,19.6-12.8,29.6-9.6c8.3,2.6,14.9,13.4,13.8,22.2c-0.4,3-2.4,2.3-4,2.3c-8.5,0.1-17,0.3-25.5-0.1c-4.5-0.2-5,1.6-4.2,5.3
			c1.8,8,7.1,12.7,15.8,13.4C397.2-237.4,402.9-239.1,409-241.5z M385.4-262c2.3,0,4.6,0,7,0c1.2,0,3.1,0.4,2.9-1.7
			c-0.5-4.5-1.2-9.1-5.4-11.8c-3.1-2-6.4-1.8-9.2,0.6c-3.5,3-5.6,7.3-4.7,11.5c0.7,3,5,0.7,7.6,1.3C384-261.8,384.7-262,385.4-262z"
			/>
		<path class="st0" d="M468.5-241.2c1,2.4-0.7,3.9-1.8,5.4c-6.5,9.4-18.1,13.1-29.7,9.8c-10.3-3-17-12-17.3-23.6
			c-0.7-21.5,15.4-35.7,36.4-32c4.2,0.7,8.1,2.1,10.9,5.5c2.9,3.4,2.1,4.8-2.9,9.2c-3.4,2.9-4.4,0.5-6-1.7c-3.2-4.5-6.3-9.6-13-8
			c-6.7,1.7-7.6,7.6-8.7,13.3c-0.2,1.1-0.4,2.3-0.5,3.5c-1.1,16.3,8.2,24.4,24.1,21.1C462.9-239.3,465.7-240.3,468.5-241.2z"/>
		<path class="st0" d="M140.1-239.4c0-17,11-32.1,27.2-37.5c3.6-1.2,4.2-0.1,4.3,3.3c0,4-0.7,7-4.1,9.9c-8.7,7.4-9.9,18.2-3.1,27.8
			c2.4,3.4,2.1,5.3-1.4,7.4c-5.3,3.2-11.1,4.2-17.2,4.6c-2.3,0.2-3.3-1.2-3.9-3.1C140.7-231.1,140-235.2,140.1-239.4z"/>
		<path class="st0" d="M531.2-228.2c-13.4,10.6-28.4,17.6-45.3,20.4c-20.2,3.3-40.5,2.2-60.8,1.6c-25.3-0.7-50.6-2.5-75.9-0.8
			c-27.2,1.9-52.5,9.4-75.5,24.3c-1.4,0.9-2.5,2.3-4.6,1.4c17.6-13.3,37.3-21.1,58.7-25.9c28.2-6.3,56.5-3.6,84.8-3.2
			c12.1,0.2,24.3,1,36.4,1.5C478.2-207.6,506.4-210.5,531.2-228.2z"/>
		<path class="st0" d="M231.8-253.9c0,7.3,0,14.6,0,22c0,1.6,0.5,3.5-2.2,3.6c-2.5,0.1-2.4-1.8-2.7-3.4c-3.1-17-11.8-29.8-28-36.8
			c-4.1-1.8-3-5.1-2.4-7.6c0.7-3.2,3.3-0.8,4.8-0.4c4,1.2,7.8,2.9,11.7,4.2c6.9,2.3,9.5,1.4,13.2-4.8c1-1.6,1.9-2.7,3.9-2.3
			c2.3,0.4,1.5,2.3,1.5,3.6C231.8-268.5,231.8-261.2,231.8-253.9z"/>
		<path class="st0" d="M242.9-147.7c0.4-3,2.6-5,4.4-7.1c23.3-27.5,53.4-41.8,89.1-44.3c24.1-1.7,47.8,1.8,71.3,7.1
			c-3-0.3-6-0.6-9-1c-3.3-0.4-6.6-0.9-9.9-1.2c-24.2-2.8-48.4-5-72.5,0.6C286.6-186.7,262-171.6,242.9-147.7L242.9-147.7z"/>
		<path class="st0" d="M372-213.4c8.6-0.4,17.3-1,25.9-1.2c23.8-0.5,47.6-0.5,71.2-3.9c12.6-1.8,24.7-5.5,35.5-12.4
			c0.5-0.4,1.2-0.6,1.8-0.8c0.3-0.1,0.6,0.1,1.2,0.3c-0.2,2.1-2.1,2.8-3.4,3.6c-12.2,8.2-26.1,11.5-40.4,13
			C433.2-211.7,402.6-213.5,372-213.4z"/>
		<path class="st0" d="M265.8-184.7c5.9-6,13.4-9.7,20.7-13.5c27.1-14.1,56.2-19.8,86.5-20.8c0.1,0.1,0.1,0.2,0.1,0.2
			c-0.1,0-0.3-0.1-0.4-0.1c-9.8,2.8-20,3.4-29.9,5.2c-26.4,4.9-51.6,13.1-74.3,27.9C267.7-185.1,266.9-184.4,265.8-184.7
			C265.8-184.8,265.8-184.7,265.8-184.7z"/>
		<path class="st0" d="M469.1-196.5c-40,0.3-79.8-5.6-120.4-5.2c1.3-1.8,2.9-1.2,4.1-1.4c1.5-0.3,3-0.4,4.5-0.4
			c12.4,0.1,24.8,0.1,37.2,1.3c7.2,0.7,14.9,0.7,22.1,1.5c7,0.8,14,0.9,21,1.5c9.2,0.9,18.6,1.6,27.9,1.4c1.1,0,2.3,0,3.4,0
			C469-197.3,469.1-196.9,469.1-196.5z"/>
		<path class="st0" d="M260.8-182.8c-3.7-1.1-4.4,3.8-7.5,3.8c6.5-10.9,41-31.8,58.5-35.3c-1.9,2.3-4.5,3-6.8,4.1
			c-14.4,7-28.6,14-41.4,23.8C262.3-185.4,260-185.1,260.8-182.8C260.7-182.7,260.8-182.8,260.8-182.8z"/>
		<path class="st0" d="M257.5-170.9c2.3-2.1,4.6-4.2,6.9-6.3c0.2,0.3,0.5,0.5,0.7,0.8c-2.4,2-4.8,4-7.2,6
			C257.8-170.6,257.6-170.7,257.5-170.9z"/>
		<path class="st0" d="M262.8-182.8c0.8-1,1.6-1.9,3-2l0,0C265.4-183.1,264.3-182.5,262.8-182.8L262.8-182.8z"/>
		<path class="st0" d="M262.7-182.8c-0.6,1.7-1.2,0.9-1.9,0.1l-0.1,0.1C261.4-182.7,262.1-182.7,262.7-182.8
			C262.8-182.8,262.7-182.8,262.7-182.8z"/>
	</g>
	<polygon class="st0" points="533.4,-229.2 533,-229.2 533.1,-229.4 	"/>
	<g>
		<path class="st1" d="M167.1-215.5c-32.5,8.9-60.2-1.7-78.2-29.8C64-284.2,70.6-347.9,103-381c19.3-19.8,44.1-23.5,68.4-10.3
			c1.3,0.7,2.6,1.5,3.9,2.2c6.1,3.3,8,2.4,10-4.2c0.6-1.9-0.9-5.8,2.4-5.5c3.2,0.3,1.8,4.1,1.9,6.3c1,15.6,1.8,31.2,2.6,46.9
			c0.1,1.3,1.1,3.3-1.3,3.6c-2.3,0.3-2-1.8-2.3-3.1c-2.2-10.8-6.6-20.6-13.8-28.9c-17.7-20.5-44.4-19.8-60.9,1.6
			c-9.6,12.5-14.2,27-16.4,42.3c-3.4,24.1-2.6,47.8,6.4,70.8c4.6,11.8,11.3,22.2,21.8,29.8c15.1,10.9,33.8,9.3,46.8-4
			c1.4-1.5,1.9-3,1.9-4.9c0-16.5,0.1-33-0.1-49.4c-0.1-13-2.3-15.8-15-19.6c-1.9-0.6-1.7-1.6-1.8-2.9c-0.1-1.9,1-2.1,2.6-2.1
			c5.2,0.1,10.3,0,15.5,0c10.2,0,20.3,0,30.5,0c1.4,0,3.1-0.5,3.3,1.9c0.2,2-0.6,2.8-2.6,3.4c-10.1,3-12.7,5.9-13,16.6
			c-0.5,17.3-0.6,34.6-0.3,51.9c0.1,5.6-1.2,9.6-6.2,12.2c-2,1.1-3.9,2.6-5.8,3.9C176.7-220.2,171.9-217.9,167.1-215.5z"/>
		<path class="st1" d="M248-345.9c0,3.2,0,6.3,0,9.5c0,2.1-1.6,3.3-2.6,2.1c-2.2-2.4-3.7-0.6-5.5,0.1c-6,2.3-10.9-0.4-11.5-6.8
			c-0.4-4.8-0.2-9.6-0.2-14.5c0-1.3,0.2-2.2,1.9-2.2c1.9-0.1,2.2,0.9,2.2,2.4c0,4.2,0,8.3,0,12.5c0.1,3.2,1.1,5.7,4.9,5.3
			c3.5-0.4,7.1-0.8,6.9-5.9c-0.2-4,0-8,0-12c0-1.6,0.3-2.5,2.2-2.4c1.8,0.1,1.7,1.2,1.7,2.4C248-352.2,248-349,248-345.9z"/>
		<path class="st1" d="M209.7-346.5c0-3,0-6,0-9c0-3.2,2.9-2.8,3.5-1.6c1.3,3,2.5,1.3,4,0.6c1.5-0.7,3.1-1.2,4.8-1.2
			c1.4,0.1,2.6,0.1,2.7,2c0.1,2-1,1.9-2.5,2c-7.8,0.4-8.4,1.2-8.4,8.8c0,2.5,0,5,0,7.5c0,1.4,0.5,3.2-1.9,3.3
			c-2.7,0.1-2.1-2-2.1-3.5C209.7-340.5,209.7-343.5,209.7-346.5z"/>
		<g>
			<path class="st1" d="M272.9-356.7c-2.2-1.8-4.7-2.4-7.5-1.6c-2.4,0.7-4.6,2.7-7.5,0.6c-1.3-0.9-2.2,0.7-2.2,2.3
				c0,9.1,0,18.3,0,27.4c0,1.6,0.4,2.5,2.2,2.5c2.1,0,1.9-1.3,1.9-2.7c0-2.1,0-4.3,0-6.6c1,0.2,1.7,0.2,2.3,0.4
				c6.2,1.5,10.6-0.2,13.1-5.1C278-345,276.9-353.4,272.9-356.7z M272.6-346.3c0,6-2.5,8.7-7.6,8.9c-6.7,0.3-5.1-4.4-5.2-9.2
				c0-5.9,1.5-8,6.5-8.1C270.4-354.8,272.6-351.8,272.6-346.3C272.6-346.3,272.6-346.3,272.6-346.3
				C272.6-346.3,272.6-346.3,272.6-346.3z"/>
			<path class="st1" d="M292.3-358.6c-6.6,0-10.9,5-10.9,12.7c0,7.5,4.1,12.2,10.7,12.3c6.9,0.1,11.2-4.6,11.2-12.3
				C303.3-353.5,298.9-358.6,292.3-358.6z M292.1-336.9c-4.3-0.1-6.6-3.5-6.5-9.4c0,0,0,0,0,0c0,0,0,0,0,0c0.1-5.7,2.3-8.6,6.7-8.6
				c4.5,0,6.8,3.1,6.8,9.1C299.1-340.1,296.5-336.8,292.1-336.9z"/>
		</g>
	</g>
</g>
<g>
	<g>
		<path class="st0" d="M91.7,183.6c4.8-2.4,9.6-4.7,14.4-7.1c6.1,3.9,12.3,7.7,18.4,11.6c8.4,5.3,16.7,10.8,24.5,17.1
			c12.9,10.4,22.3,30.1,12.5,50c-0.4,0.7-0.9,1.5-0.2,2.3l0.1-0.1c-1.5,0.1-2,0.7-1,2l0,0c-0.7-0.7-1.1-0.2-1.5,0.4
			c-14.8,20.1-35,23.8-57.9,18.6c-5.5-1.2-10.8-3.4-16.2-4.9c-8-2.2-9.7-1.6-14.2,5.1c-1,1.5-2,2.1-3.6,1.8c-1.9-0.4-1.4-2-1.4-3.2
			c0-15,0-30,0-44.9c0-1.5-0.7-3.6,2.1-3.6c2.4,0,2.4,1.8,2.8,3.4c1.7,7.4,4.3,14.3,8.4,20.7c9.9,15.6,28.1,22.7,45.5,17.8
			c18.4-5.2,24.7-23.7,13.2-38.9c-3.9-5.1-8.8-9.1-14.1-12.5c-12-7.7-24.2-15.3-36.3-22.9c-1.8-1.2-3.6-2.4-5.4-3.6
			c-2.4-1.7-2.3-2.6,0.6-3.8C85.5,187,89.7,187.4,91.7,183.6z"/>
		<path class="st0" d="M199.7,125.2c2.2-1.7,4.3-3.5,6.6-5.1c8.9-5.9,19.7-4,25.7,4.8c1.1,1.6,1.6,1.6,2.9,0.5
			c2.4-2.1,4.7-4.4,7.4-5.9c6.2-3.6,12.8-3.5,19.1-0.3c5.8,3,7,8.4,6.9,14.4c-0.1,9.2,0.2,18.3-0.1,27.5c-0.1,4.3,0.6,7.4,5.2,8.6
			c1.1,0.3,3,0.7,2.4,2.5c-0.4,1.4-2,0.8-3.1,0.8c-8.2,0-16.3,0-24.5,0c-1,0-2.5,0.6-2.8-1.2c-0.2-1.2,0.9-1.8,1.8-2.1
			c3.8-1.5,4.3-4.4,4.2-8c-0.2-8-0.1-16-0.1-24c0-3.7-0.7-7.2-4.4-8.8c-4.1-1.8-8.1-0.8-11.9,1.5c-1.7,1.1-1.6,2.7-1.6,4.4
			c0,9.7,0.2,19.3-0.1,29c-0.1,3.5,2.1,4.5,4.2,6c0.8,0.5,1.9,1,1.6,2.2c-0.3,1.3-1.5,1.1-2.5,1.1c-7.8,0-15.7,0-23.5,0
			c-1,0-2.2,0.2-2.5-1c-0.3-1.2,0.8-1.9,1.7-2.2c4.1-1.6,4.2-4.9,4.1-8.6c-0.2-8-0.1-16-0.1-24c0-3.6-0.9-6.7-4.4-8.3
			c-4-1.8-7.8-0.8-11.5,1.2c-1.7,0.9-1.4,2.5-1.4,4c0,10,0.1,20-0.1,30c-0.1,3.2,1.9,4.3,3.9,5.7c0.8,0.6,1.8,1.2,1.5,2.3
			c-0.4,1.2-1.6,0.9-2.6,0.9c-8.3,0-16.7,0-25,0c-0.9,0-2.2,0.3-2.5-1c-0.2-1.2,0.9-1.8,1.8-2c5.9-1.4,6.2-5.6,6-10.7
			c-0.3-7.6-0.3-15.3,0-23c0.2-4.2-1-7-4.8-8.8c-1.1-0.5-2.9-1-2.8-2.5c0.2-1.8,2.2-1.6,3.6-2.1c4.9-1.7,9.9-3.1,14.6-5
			c3.8-1.5,5.6-0.9,5.5,3.5C198.4,122.7,198.2,124.2,199.7,125.2z"/>
		<path class="st0" d="M333.6,157.5c-2.2,8.8-10.9,15.5-20.6,16.5c-11.5,1.2-21.8-3.6-26.6-12.2c-5.5-10-3.9-25.1,3.7-34.4
			c7.2-8.8,19.6-12.8,29.6-9.6c8.3,2.6,14.9,13.4,13.8,22.2c-0.4,3-2.4,2.3-4,2.3c-8.5,0.1-17,0.3-25.5-0.1c-4.5-0.2-5,1.6-4.2,5.3
			c1.8,8,7.1,12.7,15.8,13.4C321.8,161.7,327.4,160,333.6,157.5z M310,137.1c2.3,0,4.6,0,7,0c1.2,0,3.1,0.4,2.9-1.7
			c-0.5-4.5-1.2-9.1-5.4-11.8c-3.1-2-6.4-1.8-9.2,0.6c-3.5,3-5.6,7.3-4.7,11.5c0.7,3,5,0.7,7.6,1.3
			C308.6,137.2,309.3,137.1,310,137.1z"/>
		<path class="st0" d="M393.1,157.9c1,2.4-0.7,3.9-1.8,5.4c-6.5,9.4-18.1,13.1-29.7,9.8c-10.3-3-17-12-17.3-23.6
			c-0.7-21.5,15.4-35.7,36.4-32c4.2,0.7,8.1,2.1,10.9,5.5c2.9,3.4,2.1,4.8-2.9,9.2c-3.4,2.9-4.4,0.5-6-1.7c-3.2-4.5-6.3-9.6-13-7.9
			c-6.7,1.7-7.6,7.6-8.7,13.3c-0.2,1.1-0.4,2.3-0.5,3.5c-1.1,16.3,8.2,24.4,24.1,21.1C387.5,159.8,390.3,158.7,393.1,157.9z"/>
		<path class="st0" d="M64.7,159.7c0-17,11-32.1,27.2-37.5c3.6-1.2,4.2-0.1,4.3,3.3c0,4-0.7,7-4.1,9.9c-8.7,7.4-9.9,18.2-3.1,27.8
			c2.4,3.4,2.1,5.3-1.4,7.4c-5.3,3.2-11.1,4.2-17.2,4.6c-2.3,0.2-3.3-1.2-3.9-3.1C65.3,168,64.6,163.9,64.7,159.7z"/>
		<path class="st0" d="M455.8,170.9c-13.4,10.6-28.4,17.6-45.3,20.4c-20.2,3.3-40.5,2.2-60.8,1.6c-25.3-0.7-50.6-2.5-75.9-0.8
			c-27.2,1.9-52.5,9.4-75.5,24.3c-1.4,0.9-2.5,2.3-4.6,1.4c17.6-13.3,37.3-21.1,58.7-25.9c28.2-6.3,56.5-3.6,84.8-3.2
			c12.1,0.2,24.3,1,36.4,1.5C402.8,191.4,431,188.6,455.8,170.9z"/>
		<path class="st0" d="M156.4,145.2c0,7.3,0,14.6,0,22c0,1.6,0.5,3.5-2.2,3.6c-2.5,0.1-2.4-1.8-2.7-3.4c-3.1-17-11.8-29.8-28-36.8
			c-4.1-1.8-3-5.1-2.4-7.6c0.7-3.2,3.3-0.8,4.8-0.4c4,1.2,7.8,2.9,11.7,4.2c6.9,2.3,9.5,1.4,13.2-4.8c1-1.6,1.9-2.7,3.9-2.3
			c2.3,0.4,1.5,2.3,1.5,3.6C156.4,130.5,156.4,137.9,156.4,145.2z"/>
		<path class="st0" d="M167.5,251.4c0.4-3,2.6-5,4.4-7.1c23.3-27.5,53.4-41.8,89.1-44.3c24.1-1.7,47.8,1.8,71.3,7.1
			c-3-0.3-6-0.6-9-1c-3.3-0.4-6.6-0.9-9.9-1.2c-24.2-2.8-48.4-5-72.5,0.6C211.2,212.3,186.6,227.5,167.5,251.4L167.5,251.4z"/>
		<path class="st0" d="M296.6,185.7c8.6-0.4,17.3-1,25.9-1.2c23.8-0.5,47.6-0.5,71.2-3.9c12.6-1.8,24.7-5.5,35.5-12.4
			c0.5-0.4,1.2-0.6,1.8-0.8c0.3-0.1,0.6,0.1,1.2,0.3c-0.2,2.1-2.1,2.8-3.4,3.6c-12.2,8.2-26.1,11.5-40.4,13
			C357.8,187.3,327.2,185.6,296.6,185.7z"/>
		<path class="st0" d="M190.4,214.3c5.9-6,13.4-9.7,20.7-13.5c27.1-14.1,56.2-19.8,86.5-20.8c0.1,0.1,0.1,0.2,0.1,0.2
			c-0.1,0-0.3-0.1-0.4-0.1c-9.8,2.8-20,3.4-29.9,5.2c-26.4,4.9-51.6,13.1-74.3,27.9C192.3,213.9,191.5,214.6,190.4,214.3
			C190.4,214.3,190.4,214.3,190.4,214.3z"/>
		<path class="st0" d="M393.7,202.6c-40,0.3-79.8-5.6-120.4-5.2c1.3-1.8,2.9-1.2,4.1-1.4c1.5-0.3,3-0.4,4.5-0.4
			c12.4,0.1,24.8,0.1,37.2,1.3c7.2,0.7,14.9,0.7,22.1,1.5c7,0.8,14,0.9,21,1.5c9.2,0.9,18.6,1.6,27.9,1.4c1.1,0,2.3,0,3.4,0
			C393.6,201.7,393.7,202.2,393.7,202.6z"/>
		<path class="st0" d="M185.4,216.3c-3.7-1.1-4.4,3.8-7.5,3.8c6.5-10.9,41-31.8,58.5-35.3c-1.9,2.3-4.5,3-6.8,4.1
			c-14.4,7-28.6,14-41.4,23.8C186.9,213.6,184.6,213.9,185.4,216.3C185.3,216.4,185.4,216.3,185.4,216.3z"/>
		<path class="st0" d="M182.1,228.2c2.3-2.1,4.6-4.2,6.9-6.3c0.2,0.3,0.5,0.5,0.7,0.8c-2.4,2-4.8,4-7.2,6
			C182.4,228.5,182.2,228.3,182.1,228.2z"/>
		<path class="st0" d="M187.4,216.3c0.8-1,1.6-1.9,3-2l0,0C190,216,188.9,216.5,187.4,216.3L187.4,216.3z"/>
		<path class="st0" d="M187.3,216.2c-0.6,1.7-1.2,0.9-1.9,0.1l-0.1,0.1C186,216.4,186.7,216.3,187.3,216.2
			C187.4,216.3,187.3,216.2,187.3,216.2z"/>
	</g>
	<polygon class="st0" points="458,169.8 457.6,169.9 457.7,169.6 	"/>
	<g>
		<path class="st1" d="M91.7,183.6c-32.5,8.9-60.2-1.7-78.2-29.8C-11.4,114.9-4.8,51.1,27.6,18.1C46.9-1.7,71.6-5.4,95.9,7.8
			c1.3,0.7,2.6,1.5,3.9,2.2c6.1,3.3,8,2.4,10-4.2c0.6-1.9-0.9-5.8,2.4-5.5c3.2,0.3,1.8,4.1,1.9,6.3c1,15.6,1.8,31.2,2.6,46.9
			c0.1,1.3,1.1,3.3-1.3,3.6c-2.3,0.3-2-1.8-2.3-3.1c-2.2-10.8-6.6-20.5-13.8-28.9C81.7,4.4,55,5.1,38.5,26.5
			c-9.6,12.5-14.2,27-16.4,42.3c-3.4,24.1-2.6,47.8,6.4,70.8c4.6,11.8,11.3,22.2,21.8,29.8c15.1,10.9,33.8,9.3,46.8-4
			c1.4-1.5,1.9-3,1.9-4.9c0-16.5,0.1-33-0.1-49.4c-0.1-13-2.3-15.8-15-19.6c-1.9-0.6-1.7-1.6-1.8-2.9c-0.1-1.9,1-2.1,2.6-2.1
			c5.2,0.1,10.3,0,15.5,0c10.2,0,20.3,0,30.5,0c1.4,0,3.1-0.5,3.3,1.9c0.2,2-0.6,2.8-2.6,3.4c-10.1,3-12.7,5.8-13,16.6
			c-0.5,17.3-0.6,34.6-0.3,51.9c0.1,5.6-1.2,9.6-6.2,12.2c-2,1.1-3.9,2.6-5.8,3.9C101.2,178.8,96.5,181.2,91.7,183.6z"/>
		<path class="st1" d="M172.6,53.2c0,3.2,0,6.3,0,9.5c0,2.1-1.6,3.3-2.6,2.1c-2.2-2.4-3.7-0.6-5.5,0.1c-6,2.3-10.9-0.4-11.5-6.8
			c-0.4-4.8-0.2-9.6-0.2-14.5c0-1.3,0.2-2.2,1.9-2.2c1.9-0.1,2.2,0.9,2.2,2.4c0,4.2,0,8.3,0,12.5c0.1,3.2,1.1,5.7,4.9,5.3
			c3.5-0.4,7.1-0.8,6.9-5.9c-0.2-4,0-8,0-12c0-1.6,0.3-2.5,2.2-2.4c1.8,0.1,1.7,1.2,1.7,2.4C172.6,46.9,172.6,50,172.6,53.2z"/>
		<path class="st1" d="M134.3,52.5c0-3,0-6,0-9c0-3.2,2.9-2.8,3.5-1.6c1.3,3,2.5,1.3,4,0.6c1.5-0.7,3.1-1.2,4.8-1.2
			c1.4,0,2.6,0.1,2.7,2c0.1,2-1,1.9-2.5,2c-7.8,0.4-8.4,1.2-8.4,8.8c0,2.5,0,5,0,7.5c0,1.4,0.5,3.2-1.9,3.3c-2.7,0.1-2.1-2-2.1-3.5
			C134.2,58.5,134.3,55.5,134.3,52.5z"/>
		<g>
			<path class="st1" d="M197.5,42.4c-2.2-1.8-4.7-2.4-7.5-1.6c-2.4,0.7-4.6,2.7-7.5,0.6c-1.3-0.9-2.2,0.7-2.2,2.3
				c0,9.1,0,18.3,0,27.4c0,1.6,0.4,2.5,2.2,2.5c2.1,0,1.9-1.3,1.9-2.7c0-2.1,0-4.3,0-6.6c1,0.2,1.7,0.2,2.3,0.4
				c6.2,1.5,10.6-0.2,13.1-5.1C202.6,54.1,201.5,45.6,197.5,42.4z M197.2,52.8c0,6-2.5,8.7-7.6,8.9c-6.7,0.3-5.1-4.4-5.2-9.2
				c0-5.9,1.5-8,6.5-8.1C195,44.3,197.2,47.2,197.2,52.8C197.2,52.7,197.2,52.7,197.2,52.8C197.2,52.7,197.2,52.8,197.2,52.8z"/>
			<path class="st1" d="M216.9,40.5c-6.6,0-10.9,5-10.9,12.7c0,7.5,4.1,12.2,10.7,12.3c6.9,0.1,11.2-4.6,11.2-12.3
				C227.9,45.5,223.5,40.5,216.9,40.5z M216.7,62.1c-4.3-0.1-6.6-3.5-6.5-9.4c0,0,0,0,0,0c0,0,0,0,0,0c0.1-5.7,2.3-8.6,6.7-8.6
				c4.5,0,6.8,3.1,6.8,9.1C223.7,59,221.1,62.3,216.7,62.1z"/>
		</g>
	</g>
</g>
<g>
	<path class="st2" d="M17.4-95.7c2-0.1,4,0,6-0.1c2.1,0,2.3-1.4,2.3-3.1c0-1.5-0.4-2.7-2.2-2.6c-5.4,0.3-10.8-0.8-16.2,0.6
		c-0.2,0.9-0.3,1.8-0.5,2.6C6-93,6-87.6,6.7-82.2C6.8-81.1,6.9-80,7-78.9c5.6,2.1,11.4,0.7,17.1,0.8c1.7,0,1.5-1.9,1.5-3.2
		c0-1.8-1.1-2.2-2.6-2.2c-2.5,0-5,0-7.5,0c-1.1,0-1.9-0.5-1.9-1.8c0-1.3,1-1.6,2-1.6c1.7,0,3.3,0,5,0c1.9,0,2.6-1.1,2.6-2.9
		c0-1.8-0.7-2.8-2.6-2.7c-1,0.1-2,0.1-3,0c-1.4-0.2-3.9,0.9-3.8-1.7C13.8-96.4,16-95.6,17.4-95.7z"/>
	<path class="st2" d="M552.8-97.3c0-1.9,0.7-4.1-2.7-4c-3.2,0.1-2.5,2.4-2.6,4.2c-0.2,1.8,0.5,3.8-0.7,5.6c-3.9-2.6-3.9-8.1-8.5-9.5
		c-5.8-0.8-5.9-0.8-5.9,4.4c0,4.6,0,9.3,0,14c0,2.2-0.8,4.9,3.1,4.8c3.5-0.1,2.8-2.5,2.9-4.6c0.1-2.1,0-4.1,0-6.2
		c0.3-0.1,0.7-0.2,1-0.2c2.3,3,4.6,6,6.9,9.1c1.5,1.6,2.8,2,5.1,1c2.5-1.1,1.3-2.8,1.4-4.1C552.9-87.7,552.8-92.5,552.8-97.3z"/>
	<path class="st2" d="M294.7-92.9c-1.6-0.4-4.7-0.4-4.2-2.5c0.5-2.2,3.2-1.4,5.2-1c0.3,0.1,0.6,0.2,0.9,0.4c1.3,3.5,3.6,1.6,5.6,1
		c0.9-0.2,0.8-0.4,0.1-2.7c-1.8-2.7-4.6-3.6-7.7-3.8c-5.5-0.3-9.8,2.3-10.5,6.2c-0.7,3.8,2,6.6,7.5,8.8c1.7,0.6,4.6-0.7,5,2.5
		c-2.9,1.4-5.7,2.9-7.9-1.1c-0.4-0.7-1.5-0.4-2.3,0.1c-0.1,0-0.3-0.1-0.4-0.2c0.1,0.1,0.1,0.2,0.2,0.3c-0.9,0.2-1.7,0.3-2.6,0.5
		c-0.1,0-0.3-0.1-0.5-0.1c-0.1,0-0.3,0.2-0.3,0.3c0,2,0.7,3.6,2.8,4.2c0.5,0.4,1.1,0.7,1.6,1.1c4.9,2.5,9.5,2.6,14-1
		c0.4-0.4,0.8-0.9,1.3-1.3c1.8-1.5,2.5-3.2,1.2-5.4C302.8-91.8,298.5-91.9,294.7-92.9z"/>
	<path class="st2" d="M625.9-85.9c-0.3-3.4-2.5-5.3-5.7-6.1c-1.6-0.4-3.2-0.7-4.9-1c-0.5-1-2.7-0.8-2.3-2.3c0.3-1.2,1.8-1.3,3-1.1
		c0.6,0.1,1.3,0.2,1.9,0.3c0.4,0.4,0.8,0.7,1.2,1.1c2.2,2,4.4,0.5,5.6-0.9c1-1.2-0.3-2.8-2-3.4c0.2,0.5,0.3,0.9,0.4,1.3
		c-0.1-0.4-0.2-0.8-0.4-1.3c-0.8-0.4-1.5-0.9-2.3-1.3c-2.8-0.2-5.6-0.3-8.3-0.5c-0.7,0.2-1.3,0.4-2,0.6l-0.2-0.2l0,0.3
		c-0.4,0.3-0.8,0.6-1.1,0.9c-0.4-0.2-0.7-0.3-0.5,0.3c-0.4,0.4-0.8,0.9-1.2,1.3c-2.5,4.5-1.7,8.1,2.7,9.9c2.5,1.1,5.4,1.4,8.1,2.1
		c0.3,0.3,0.6,0.6,1,0.8c-0.4,0.5-0.4,0.9,0,1.3c-2.1,1.7-4.4,1.8-6.4,0.2c-1.5-1.2-3-1-4.7-1.1c-1.1-0.1-2.2,0.1-2.5,1.1
		c-0.2,0.5,0.7,1.4,1.2,2c3.6,4,7.9,4.6,14.3,2.1C623.7-80.7,626.2-82.2,625.9-85.9z"/>
	<path class="st2" d="M373.9-83.6c-7.3-0.8-7.3-0.9-7.3-8.5c0-1.3,0-2.7,0-4c0-5.8-0.3-6-6.4-4.8c-1,7.4-0.9,14.8,0,22.2
		c4.6,1.7,9.5,0.4,14.2,0.7c2.1,0.1,2.3-1.4,2.3-3C376.7-82.9,375.7-83.4,373.9-83.6z"/>
	<path class="st2" d="M472.4-101.3c-2.7,0-3.5,1.1-3.3,3.6c0.2,2.6,0,5.3,0,8c0,2.8,0.1,5.7,0,8.5c-0.1,2.5,1,3.1,3.2,3.1
		c2.5,0,3.7-0.6,3.6-3.3c-0.2-5.5-0.2-11,0-16.5C475.9-100.6,474.9-101.3,472.4-101.3z"/>
	<path class="st2" d="M409.6-101.6c-3,0.1-3.1,1.7-3.1,3.9c0.1,3.6,0,7.3,0,11c0,2.4-1.1,3.7-3.6,3.8c-2.5,0-3.6-1.3-3.6-3.7
		c0-3.2-0.2-6.3,0-9.5c0.4-4.8-1.4-6.6-6.1-4.8c-2.3,6.8-2.2,13.5,0.3,20.1c4.1,5.1,9.5,3.9,14.5,2.5c4.7-1.3,5.1-5.6,5-9.8
		c0-3.2-0.1-6.3,0-9.5C413.1-100,412.8-101.7,409.6-101.6z"/>
	<path class="st2" d="M580.6-95.7c2.2,0,4.3-0.1,6.5,0c2.2,0.1,3.5-0.5,3.5-3c0-2.7-1.6-2.8-3.6-2.8c-2.5,0.1-5,0-7.5,0
		c-8.4,0-8.4,0-8.4,8.5c0,15.9,0,15.9,15.7,15.1c0.2,0,0.3,0,0.5,0c2.1,0.2,3.2-0.7,3.2-2.8c0-1.9-0.9-3-3.1-2.9c-2.3,0.1-4.6,0-7,0
		c-1.1,0-1.9-0.5-1.9-1.8c0-1.3,0.9-1.5,2-1.7c1.9-0.3,4,0.6,5.8-0.5c0.3-0.1,0.7-0.3,1-0.4c1.6-3.3,0.7-4.9-3.1-4.7
		c-1.2,0.1-2.3,0-3.5,0c-1,0-2.1-0.1-2.1-1.5C578.6-95.4,579.5-95.7,580.6-95.7z"/>
	<path class="st2" d="M-45.7-98.3c0-3.1-1.3-4-4.1-2.8c-2.9,2.8-0.7,6.4-1.3,9.5c-0.7-0.1-1.5-0.3-2.2-0.4c-0.4-0.6-0.8-1.2-1.2-1.9
		c0.2-0.8-0.2-1.2-0.9-1.5c-0.4-0.5-0.7-1-1.1-1.6c0.2-0.8-0.1-1.3-0.9-1.4c-0.4-0.6-0.8-1.1-1.2-1.7c-1.6-3.1-4.4-1.6-6.5-1.3
		c-2.2,0.3-1.3,2.7-1.3,4.2c-0.1,5.3,0,10.6-0.1,16c0,1.9,0.4,3.2,2.7,3.2c2.3,0,3.4-0.8,3.3-3.2c-0.1-2.5,0-5.1,0-7.7
		c0.4-0.1,0.8-0.2,1.2-0.3c2,3,4.1,5.9,5.9,8.9c1.5,2.5,3.8,2.6,6.1,2s1.5-2.7,1.5-4.2C-45.6-87.6-45.7-92.9-45.7-98.3z"/>
	<path class="st2" d="M-12.4-101.5c-2.3,0.1-4.6,0-7,0c-2.7,0-5.3,0-7.9,0c-1.8,0-2.3,1.1-2.2,2.5c0,1.3-0.2,3.3,1.5,3.1
		c6.2-0.4,4.7,3.9,4.8,7.3c0.1,2.3,0.1,4.6,0,7c-0.2,2.8,1.1,3.7,3.8,3.7c2.9,0,3.8-1.1,3.6-3.8c-0.2-3,0-6-0.1-8.9
		c-0.1-2.8-0.2-5.4,3.9-5c2.4,0.2,2.4-1.7,2.4-3.4C-9.6-100.9-10.6-101.6-12.4-101.5z M-19.7-100.6c-2,0-4,0-6,0
		C-23.7-100.6-21.7-100.6-19.7-100.6c2,0,4,0,6,0C-15.7-100.6-17.7-100.6-19.7-100.6z"/>
	<path class="st2" d="M-84.3-89.5c0-2.7-0.1-5.3,0-8c0.1-2.5-0.2-4.1-3.4-4c-3,0-4.2,1-4.1,4c0.1,5.2,0.1,10.3,0,15.5
		c-0.1,2.8,0.5,4.3,3.8,4.3c3.3,0,4-1.5,3.8-4.3C-84.4-84.5-84.3-87.1-84.3-89.5z"/>
	<path class="st2" d="M177.2-98.3c0-3-1.3-4-4.1-2.7c-3.3,2.5,0.1,6.6-2.3,9.6c-2.7-2-4-5.1-5.7-7.8c-1.7-2.8-4.3-2.2-6.6-1.9
		c-2.6,0.2-1.3,2.5-1.6,3.9c-0.6,4.9-0.6,9.8,0,14.7c0,1.4-0.3,2.9,0.9,4.1c4.5,0.5,4.5,0.5,4.7-3.4c0.1-2.4-0.6-4.9,0.9-8
		c1.1,1.5,1.9,2.5,2.6,3.5l0,0c0.3,0.5,0.6,1,1,1.4c-0.3,0.9,0.2,1.4,1,1.6c0.3,0.5,0.7,0.9,1,1.4c-0.2,0.9,0.2,1.4,1,1.6
		c0.3,0.4,0.6,0.8,0.9,1.2l-0.1,0.2c0,0,0.2-0.1,0.2-0.1c0.5,0.2,1.1,0.5,1.6,0.7c3,1,4.6,0.2,4.5-3.3
		C177.1-87.1,177.2-92.7,177.2-98.3z"/>
	<path class="st2" d="M62.6-90.1c-2.5-1.2-5.2-0.4-7.9-0.5c-1,0-2.4-0.5-2.8,1.1c-0.4,1.5,0.3,2.6,1.6,3.3c0.9,0.5,3.3,0.1,1.8,2.2
		c-1,1.5-2.9,1.6-4.5,0.7c-2.5-1.4-2.9-3.9-2.8-6.5c0.1-2.7,0.4-5.5,3.3-6.8c2.5-1,3.7,0.8,5.1,2.7c1.4,2,4,1.2,5.4,0.2
		c2-1.3,0.1-3-0.7-4.2c-3.5-5.3-14-5.6-17.6,0.5c-0.2,0.1-0.3,0.2-0.5,0.3c0.1,0.1,0.1,0.2,0.2,0.3c-0.3,0.6-0.7,1.3-1,1.9
		c-1.6,2.4-1.6,5-0.7,7.6c0.2,0.8,0.4,1.6,0.7,2.4c-0.4,1-0.1,1.7,0.9,2.1c1,1,2.1,2.1,3.1,3.2c0.3,1.4,1.7,1.3,2.6,1.5
		c3,0.7,6.2-1,8.6-0.5c7.4,1.5,5.8-3.2,5.7-7C63.1-86.9,63.6-88.6,62.6-90.1z"/>
	<path class="st2" d="M450.4-86.9c-0.9-0.1-2.3,0.5-2.8,1.3c-0.5,0-1.2-0.2-1.4,0.1c-1.8,1.9-3.7,4.1-6.5,2.4c-3-1.8-2.7-5.1-2.3-8
		c0.2-2.2,0.7-4.5,3.2-5.2c2.7-0.8,3.6,1.1,4.7,3.2c1.3,2.6,4,1.4,5.7,0.8c2.2-0.9,0.7-2.9,0-4.2c-2.3-4.7-8.1-6.1-14.8-3.8
		c-0.3-0.2-0.6-0.4-0.5,0.2c-0.4,0.2-0.8,0.5-1.2,0.7l-0.2-0.1l0,0.2c-0.3,0.3-0.6,0.6-0.9,0.8l-0.2-0.1l0.1,0.2
		c-0.3,0.3-0.5,0.6-0.8,0.9l-0.2-0.1l0.1,0.2c-0.3,0.4-0.5,0.8-0.8,1.1c-0.2,0.1-0.3,0.2-0.5,0.3c0.1,0.1,0.1,0.2,0.2,0.3l0,0
		c-0.3,1-0.7,1.9-1,2.9l0,0c-0.8,2.3-0.9,4.6,0.2,6.8l0,0c0.3,0.6,0.5,1.3,0.8,2c-0.1,0.1-0.2,0.2-0.2,0.2c0.2,0.1,0.3,0.2,0.5,0.3
		c0.3,0.4,0.5,0.8,0.8,1.2l-0.2,0.2l0.3,0c0.3,0.5,0.6,0.9,0.9,1.3c0.4,1.3,1.5,1.6,2.7,1.7c0.6,0.3,1.2,0.6,1.8,0.8
		c2.5,1.3,5,1,7.5,0c0.5-0.2,1-0.5,1.5-0.7c0.4,0.4,0.7,0.3,0.8-0.3c0.4-0.3,0.7-0.5,1.1-0.8l0.2,0.1l0-0.2c0.4-0.3,0.7-0.7,1.1-1
		c1.8-0.7,2.1-2.4,2.4-4C452.2-86.2,451.6-86.8,450.4-86.9z"/>
	<path class="st2" d="M612.2-101.1c2.8,0.2,5.6,0.4,8.3,0.5C617.9-102.4,615.1-102.2,612.2-101.1z"/>
	<path class="st2" d="M241.9-100.6c-1,0-2,0-3,0c-0.3-0.3-0.5-0.4-0.6,0.2c-0.5,0.3-1,0.6-1.5,1c-0.7-0.2-1,0-0.8,0.8
		c-0.3,0.3-0.7,0.7-1,1c0,0,0,0.1,0.1,0.1l-0.1-0.1l-0.3-0.1l0.1,0.2c-0.3,0.5-0.6,0.9-0.9,1.4c0,0.1,0,0.1,0.1,0.2
		c0-0.1-0.1-0.1-0.1-0.2c-2.9,5.6-2.2,11.9,1.6,15.7c3.5,3.4,8.3,3.9,13.5,1.3l0,0c0.5-0.4,1-0.7,1.6-1.1c0.7,0.2,1,0,0.8-0.8
		c0.3-0.4,0.7-0.8,1-1.1l0.3,0l-0.1-0.2c0.2-0.3,0.5-0.6,0.7-1l0.3,0l-0.2-0.2C257.6-94.2,253.4-100.6,241.9-100.6z M243.6-82.1
		c-3.2,0-5.8-3.2-5.8-7.2c0-4,2.6-7.2,5.8-7.2s5.8,3.2,5.8,7.2S246.7-82.1,243.6-82.1z"/>
	<path class="st2" d="M329.4-100.4c-1,0-2,0-3,0c-0.3-0.3-0.5-0.4-0.6,0.2c-0.5,0.3-1,0.6-1.5,1c-0.7-0.2-1,0-0.8,0.8
		c-0.3,0.3-0.7,0.7-1,1c0,0,0,0.1,0.1,0.1l-0.1-0.1l-0.3-0.1l0.1,0.2c-0.3,0.5-0.6,0.9-0.9,1.4c0,0.1,0,0.1,0.1,0.2
		c0-0.1-0.1-0.1-0.1-0.2c-2.9,5.6-2.2,11.9,1.6,15.7c3.5,3.4,8.3,3.9,13.5,1.3l0,0c0.5-0.4,1-0.7,1.6-1.1c0.7,0.2,1,0,0.8-0.8
		c0.3-0.4,0.7-0.8,1-1.1l0.3,0l-0.1-0.2c0.2-0.3,0.5-0.6,0.7-1l0.3,0l-0.2-0.2C345-94,340.8-100.4,329.4-100.4z M331-81.9
		c-3.2,0-5.8-3.2-5.8-7.2c0-4,2.6-7.2,5.8-7.2s5.8,3.2,5.8,7.2S334.2-81.9,331-81.9z"/>
	<path class="st2" d="M504.1-101.4c-1,0-2,0-3,0c-0.3-0.3-0.5-0.4-0.6,0.2c-0.5,0.3-1,0.6-1.5,1c-0.7-0.2-1,0-0.8,0.8
		c-0.3,0.3-0.7,0.7-1,1c0,0,0,0.1,0.1,0.1l-0.1-0.1l-0.3-0.1l0.1,0.2c-0.3,0.5-0.6,0.9-0.9,1.4c0,0.1,0,0.1,0.1,0.2
		c0-0.1-0.1-0.1-0.1-0.2c-2.9,5.6-2.2,11.9,1.6,15.7c3.5,3.4,8.3,3.9,13.5,1.3l0,0c0.5-0.4,1-0.7,1.6-1.1c0.7,0.2,1,0,0.8-0.8
		c0.3-0.4,0.7-0.8,1-1.1l0.3,0l-0.2-0.2c0.2-0.3,0.5-0.6,0.7-1l0.3,0l-0.2-0.2C519.8-95.1,515.6-101.4,504.1-101.4z M505.7-83
		c-3.2,0-5.8-3.2-5.8-7.2c0-4,2.6-7.2,5.8-7.2s5.8,3.2,5.8,7.2C511.5-86.2,508.9-83,505.7-83z"/>
	<path class="st2" d="M100.9-80.9c0-0.8-0.2-1.5-1-2c0-0.8-0.1-1.6-1-2c-2.2-3.1,1.9-4.4,2.1-6.8l-0.2-0.2c-0.8,0.7-1.8,1.3-2.5,2
		c0.7-0.7,1.7-1.4,2.5-2c0-1.6,0-3.3,0-4.9l0,0c0,1.6,0,3.3,0,4.9l0.2,0.2c1.5-1.8,1.2-3.5,0-5.2c0-0.9-0.4-1.5-1.3-1.8l0,0
		c-0.3-0.9-0.9-1.2-1.8-1.2l-0.1,0.1l-0.1,0.1c0.6,0.4,1.2,0.8,1.8,1.2c-0.6-0.4-1.2-0.8-1.8-1.2c0,0,0,0,0.1-0.1
		c0,0,0.1-0.1,0.1-0.1c-0.4-1-1.2-0.9-2-0.9c-3.9-1.5-7.9-0.4-11.8-0.8c-2.8-0.3-3.9,0.8-3.8,3.6c0.1,5.5,0,11,0.1,16.4
		c0,1.3-0.3,3,1.4,3.3c1.6,0.3,3.5,0.4,4.9-0.2c1.8-0.8,0.8-3,1.1-4.5c0.2-1.4-0.6-3.3,1.6-3.6c1.9-0.3,2.3,1.6,2.9,2.9
		c0.6,1.4,1.1,2.8,1.9,4.1c1.9,2.9,4.8,1.7,7.2,1.3C102.7-78.5,101.8-80,100.9-80.9z M86.8-91.7v-5.9c0,0,9.2-1.5,9.2,2.5
		C96-89.9,86.8-91.7,86.8-91.7z"/>
	<path class="st2" d="M215.5-94.7c-0.3-0.5-0.6-1.1-1-1.7l0.1-0.2l-0.3,0c-0.3-0.3-0.6-0.6-0.8-0.9l0.1-0.2c0,0-0.2,0.1-0.2,0.1
		c-0.3-0.3-0.6-0.6-0.9-0.9l0-0.2l-0.2,0.1c-0.3-0.2-0.6-0.5-1-0.8l0-0.2l-0.2,0.1c-1.6-1-3.4-1.4-5.3-1.4c-0.5,0-1,0.1-1.5,0.1
		c0.5,0,1-0.1,1.5-0.1c0.1-0.1,0.2-0.3,0.3-0.4c-0.1,0-0.2-0.1-0.3-0.1c-2.1,0-4.3,0.1-6.4-0.2c-3.3-0.4-4.8,0.7-4.6,4.3
		c0.3,5.3,0.1,10.6,0.1,15.8c0,1.5-0.2,3.4,1.9,3.4c4.8,0,9.8,1.1,14.2-2c0.5-0.4,1.1-0.7,1.6-1.1c0-0.3,0.1-0.7,0.2-1
		c0,0.3-0.1,0.7-0.2,1c0.8,0.2,1-0.1,0.9-0.8c0.4-0.5,0.8-1,1.2-1.4C217.9-86.9,217.8-90.8,215.5-94.7z M201.3-83.3v-13.2
		c0,0,9.7-1,10,6.6C211.5-82.3,201.3-83.3,201.3-83.3z"/>
	<path class="st2" d="M139.3-82.6c-1.7-5.2-3.8-10.3-5.4-15.5c-0.8-2.5-2.2-3.5-4.8-3.1c-2.8-0.7-4.1,0.7-5,3.3
		c-1.8,5.1-3.8,10.2-5.5,15.4c-0.4,1.2-2.6,3.2,0,4.1c1.7,0.6,3.8,0.8,5.3-1.5c2.8-4.2,6.4-4.1,9.3,0.1c1.8,2.5,4.4,1.9,6.3,1.3
		C141.8-79.2,139.7-81.3,139.3-82.6z M125.8-88.7l3-7.1l2.6,7.1H125.8z"/>
</g>
</svg>
